<?xml version="1.0" encoding="UTF-8"?>
<svg id="Layer_2" data-name="Layer 2" xmlns="http://www.w3.org/2000/svg" viewBox="0 0 626 529.71">
  <defs>
    <style>
      .cls-1 {
        fill: #fff;
      }
    </style>
  </defs>
  <g id="Layer_1-2" data-name="Layer 1">
    <g>
      <path class="cls-1" d="m626,466.86c-2.54,7.71-4.05,15.96-7.79,23.03-13.61,25.66-35.12,39.51-64.48,39.65-48.15.23-96.3-.02-144.45.11-34.73.09-60.31-23.33-68.31-48.92-2.44-7.82-3.67-16.34-3.7-24.55-.26-86.97-.2-173.94-.13-260.92.02-26.59,4.48-52.45,15.11-76.89,13.92-32,34.21-59.08,62.64-79.95,28.05-20.59,59.19-33.25,93.6-36.96,15.98-1.72,32.27-1.3,48.39-.77,10.92.36,19.94,9.47,20.36,20.43.68,17.79.72,35.64.1,53.44-.42,12-10.19,20.89-22.27,21.44-10.48.48-21,.01-31.47.57-44.75,2.41-82.76,36.73-88.94,81.03-1.57,11.27-1.69,23.08-.27,34.36,1.89,15.06,16,29.03,36.64,28.99,26.82-.05,53.65-.03,80.47,0,10.57.01,20.95,1.08,30.72,5.57,23.06,10.58,37.4,28.14,42.65,53.04.31,1.45.76,2.87,1.14,4.3,0,54.33,0,108.67,0,163Z"/>
      <path class="cls-1" d="m0,180.86c2.2-12.42,3.56-25.05,6.75-37.21,8.24-31.45,23.54-59.19,45.98-82.89C85.41,26.24,125.7,6.75,172.61,1.26,187.26-.46,202.23-.01,217.04.27c13.88.26,23.52,10.6,23.7,24.56.2,15.49.19,30.99.01,46.48-.17,14.66-10.28,24.48-25.01,24.88-12.97.35-26.08-.15-38.88,1.54-26.12,3.45-46.19,17.54-62.05,38.19-16.4,21.36-20.6,45.93-18.12,71.79,1.98,20.73,16.56,33.06,37.44,33.18,26.66.16,53.32.04,79.98.04,11.43,0,22.61,1.2,33.02,6.46,25.39,12.85,40.82,33.17,41.36,61.81.95,49.97.49,99.96.28,149.95-.16,38.84-32.75,70.81-72.54,70.54-47.48-.32-94.97-.07-142.46-.08-30.2,0-52.26-13.81-66.25-40.17-3.67-6.91-5.07-15.03-7.51-22.6,0-95.33,0-190.67,0-286Z"/>
    </g>
  </g>
</svg>